<?xml version="1.0" standalone="no"?>
<!DOCTYPE svg PUBLIC "-//W3C//DTD SVG 20010904//EN"
 "http://www.w3.org/TR/2001/REC-SVG-20010904/DTD/svg10.dtd">
<svg version="1.0" xmlns="http://www.w3.org/2000/svg"
 width="130.000000pt" height="130.000000pt" viewBox="0 0 130.000000 130.000000"
 preserveAspectRatio="xMidYMid meet">

<g transform="translate(0.000000,130.000000) scale(0.100000,-0.100000)"
fill="#000000" stroke="none">
<path d="M170 1230 c-13 -13 -20 -33 -20 -60 0 -53 27 -80 80 -80 27 0 47 7
60 20 13 13 20 33 20 60 0 27 -7 47 -20 60 -13 13 -33 20 -60 20 -27 0 -47 -7
-60 -20z"/>
<path d="M390 1170 l0 -40 380 0 380 0 0 40 0 40 -380 0 -380 0 0 -40z"/>
<path d="M175 885 c-18 -18 -25 -35 -25 -65 0 -53 26 -80 80 -80 54 0 80 27
80 80 0 51 -34 90 -80 90 -19 0 -40 -9 -55 -25z"/>
<path d="M390 830 l0 -40 380 0 380 0 0 40 0 40 -380 0 -380 0 0 -40z"/>
<path d="M175 545 c-50 -49 -15 -135 55 -135 41 0 80 39 80 80 0 41 -39 80
-80 80 -19 0 -40 -9 -55 -25z"/>
<path d="M390 490 l0 -40 380 0 380 0 0 40 0 40 -380 0 -380 0 0 -40z"/>
<path d="M175 225 c-50 -49 -15 -135 55 -135 41 0 80 39 80 80 0 41 -39 80
-80 80 -19 0 -40 -9 -55 -25z"/>
<path d="M390 170 l0 -40 380 0 380 0 0 40 0 40 -380 0 -380 0 0 -40z"/>
</g>
</svg>
